<svg width="49" height="49" viewBox="0 0 49 49" fill="none" xmlns="http://www.w3.org/2000/svg">
<g clip-path="url(#clip0_128_3)">
<path d="M0.905588 12.8003C-2.47892 5.25334 5.25335 -2.47894 12.8004 0.905569L20.7853 4.48647C23.1281 5.5371 25.808 5.5371 28.1508 4.48647L36.1357 0.905569C43.6827 -2.47893 51.415 5.25334 48.0305 12.8003L44.4496 20.7853C43.399 23.128 43.399 25.808 44.4496 28.1508L48.0305 36.1357C51.415 43.6827 43.6827 51.415 36.1357 48.0305L28.1508 44.4496C25.808 43.3989 23.1281 43.3989 20.7853 44.4496L12.8004 48.0305C5.25335 51.415 -2.47892 43.6827 0.905588 36.1357L4.48649 28.1508C5.53712 25.808 5.53712 23.128 4.48649 20.7853L0.905588 12.8003Z" fill="#CBF0F8"/>
<path d="M22.813 28.0489L22 31.016L21.187 28.0489C20.9769 27.2824 20.5829 26.5845 20.0423 26.0208C19.5016 25.4572 18.8321 25.0464 18.097 24.8274L15.25 23.9787L18.096 23.1311C18.8311 22.9121 19.5006 22.5013 20.0413 21.9377C20.5819 21.374 20.9759 20.6761 21.186 19.9097L22 16.9415L22.813 19.9086C23.0231 20.675 23.4171 21.373 23.9577 21.9366C24.4984 22.5003 25.1679 22.911 25.903 23.1301L28.75 23.9787L25.904 24.8263C25.1689 25.0454 24.4994 25.4561 23.9587 26.0198C23.4181 26.5834 23.0241 27.2814 22.814 28.0478L22.813 28.0489ZM31.259 20.5539L31 21.633L30.741 20.5539C30.5927 19.9353 30.286 19.3703 29.8536 18.9193C29.4212 18.4683 28.8794 18.1482 28.286 17.9934L27.25 17.7234L28.286 17.4534C28.8794 17.2986 29.4212 16.9786 29.8536 16.5276C30.286 16.0766 30.5927 15.5115 30.741 14.8929L31 13.8138L31.259 14.8929C31.4073 15.5117 31.7142 16.0768 32.1468 16.5278C32.5794 16.9788 33.1215 17.2988 33.715 17.4534L34.75 17.7234L33.715 17.9934C33.1215 18.1481 32.5794 18.468 32.1468 18.919C31.7142 19.37 31.4073 19.9352 31.259 20.5539ZM29.894 32.9103L29.5 34.1436L29.106 32.9103C28.9955 32.5648 28.8094 32.2509 28.5625 31.9934C28.3155 31.7359 28.0144 31.5419 27.683 31.4267L26.5 31.016L27.683 30.6052C28.0144 30.49 28.3155 30.296 28.5625 30.0385C28.8094 29.781 28.9955 29.4671 29.106 29.1217L29.5 27.8883L29.894 29.1217C30.0045 29.4671 30.1906 29.781 30.4375 30.0385C30.6845 30.296 30.9856 30.49 31.317 30.6052L32.5 31.016L31.317 31.4267C30.9856 31.5419 30.6845 31.7359 30.4375 31.9934C30.1906 32.2509 30.0045 32.5648 29.894 32.9103Z" stroke="#202124" stroke-width="1.5" stroke-linecap="round" stroke-linejoin="round"/>
</g>
<defs>
<clipPath id="clip0_128_3">
<rect width="49" height="49" fill="white"/>
</clipPath>
</defs>
</svg>
