<svg width="535" height="535" viewBox="0 0 535 535" fill="none" xmlns="http://www.w3.org/2000/svg">
<g clip-path="url(#clip0_172_373)">
<path d="M0 49.6995C0 22.2512 22.2512 0 49.6995 0H485.301C512.749 0 535 22.2512 535 49.6995V485.301C535 512.749 512.749 535 485.301 535H49.6995C22.2512 535 0 512.749 0 485.301V49.6995Z" fill="#333333"/>
<path fill-rule="evenodd" clip-rule="evenodd" d="M263.357 80.3428C263.357 77.7146 261.376 75.1261 259.026 76.3031C257.641 76.9968 256.51 78.2642 256.05 80.1051L230.665 181.799C229.699 185.668 225.229 187.456 221.861 185.321L123.199 122.783C117.927 119.441 111.788 125.58 115.13 130.852L177.556 229.337C179.723 232.755 177.845 237.288 173.896 238.173L60.115 263.671C54.0236 265.036 54.0236 273.717 60.115 275.082L173.896 300.579C177.845 301.465 179.723 305.997 177.556 309.414L115.13 407.901C111.788 413.172 117.927 419.311 123.199 415.97L221.866 353.428C225.233 351.293 229.701 353.08 230.669 356.947L256.051 458.34C256.511 460.179 257.643 461.445 259.026 462.138C261.376 463.316 263.357 460.726 263.357 458.098V80.3428Z" fill="#9AFFDD"/>
<path d="M277.099 339.734H325.216V379.078C325.216 383.923 321.289 387.849 316.445 387.849H277.099V339.734Z" fill="#FDFDFD"/>
<path d="M325.45 195.386H277.334V243.502H325.45V195.386Z" fill="#FDFDFD"/>
<path d="M325.215 291.618H277.099V339.734H325.215V291.618Z" fill="#FDFDFD"/>
<path d="M325.215 243.502H277.099V291.618H325.215V243.502Z" fill="#FDFDFD"/>
<path d="M373.332 243.502H325.216V281.995H373.332V243.502Z" fill="#FDFDFD"/>
<path d="M277.099 147.27L333.235 179.347L325.216 195.386H277.099V147.27Z" fill="#FDFDFD"/>
<path d="M325.216 281.995H373.331V327.704L341.254 320.088L325.216 281.995Z" fill="#FDFDFD"/>
<path d="M373.331 327.704H421.446V387.849L385.361 367.802L373.331 327.704Z" fill="#FDFDFD"/>
<path d="M385.361 187.366L421.446 147.27V243.502H373.331L385.361 187.366Z" fill="#FDFDFD"/>
</g>
<defs>
<clipPath id="clip0_172_373">
<rect width="535" height="535" fill="white"/>
</clipPath>
</defs>
</svg>
